<?xml version="1.0" encoding="UTF-8" standalone="no"?>
<svg
   version="1.1"
   width="109.63328"
   height="229.97649"
   id="svg52"
   sodipodi:docname="china_ar.svg"
   inkscape:version="1.2.1 (9c6d41e410, 2022-07-14)"
   xmlns:inkscape="http://www.inkscape.org/namespaces/inkscape"
   xmlns:sodipodi="http://sodipodi.sourceforge.net/DTD/sodipodi-0.dtd"
   xmlns="http://www.w3.org/2000/svg"
   xmlns:svg="http://www.w3.org/2000/svg">
  <defs
     id="defs56" />
  <sodipodi:namedview
     id="namedview54"
     pagecolor="#ffffff"
     bordercolor="#666666"
     borderopacity="1.0"
     inkscape:showpageshadow="2"
     inkscape:pageopacity="0.0"
     inkscape:pagecheckerboard="0"
     inkscape:deskcolor="#d1d1d1"
     showgrid="false"
     inkscape:zoom="5.6568543"
     inkscape:cx="66.026095"
     inkscape:cy="81.847609"
     inkscape:window-width="3840"
     inkscape:window-height="2126"
     inkscape:window-x="-11"
     inkscape:window-y="-11"
     inkscape:window-maximized="1"
     inkscape:current-layer="svg52" />
  <path
     d="M 63.855368,7.9610319 107.29917,106.77903 c 3.1527,7.1719 2.8744,9.1463 0.5791,14.4204 l -21.318902,48.04485 -24.1315,54.77825 c -1.9451,4.5972 -9.5559,10.4567 -14.3974,0.5213 L 22.854118,167.97618 3.0661669,123.99013 c -3.94469998,-9.6182 -3.86789998,-9.2086 -0.9978,-16.3995 L 47.821268,6.4632319 c 6.084,-11.109 12.9872,-6.07719987 16.0341,1.4978 z"
     style="fill:#e30016;fill-rule:evenodd"
     id="path2"
     sodipodi:nodetypes="ccccccccccc" />
  <path
     id="path1078"
     style="fill:#ffffff;fill-opacity:1;fill-rule:evenodd"
     d="m 55.397768,4.022082 c -1.57808,0.4106 -2.49134,1.9426699 -3.37315,3.1952599 -1.42466,2.4037103 -2.34763,5.0588501 -3.57511,7.5626601 -14.27137,31.54354 -28.55254,63.0833 -42.8016711,94.636508 -0.58863,1.77695 -1.68866,3.48335 -1.61001,5.40924 0.43937,2.5464 1.66311,4.86381 2.58809,7.25404 2.91597,6.66117 5.9547111,13.25043 8.9210111,19.90496 9.16628,20.29988 18.22311,40.64725 27.26691,61.00222 3.02815,6.78466 6.01174,13.57772 9.09868,20.33754 0.63863,1.07874 1.38397,2.50973 2.77822,2.63507 1.85943,-0.25577 3.22813,-1.86517 4.01697,-3.46364 1.34455,-2.92342 2.59034,-5.89276 3.91061,-8.82823 12.41562,-28.20592 24.84812,-56.40441 37.376718,-84.55971 1.715884,-3.91869 3.513554,-7.80547 5.132454,-11.76437 0.60522,-1.56705 0.66874,-3.32561 0.059,-4.90135 -1.10872,-3.51674 -2.87766,-6.86157 -4.25174,-10.20478 C 87.144168,70.875922 73.366068,39.508032 59.553868,8.1564719 c -0.90269,-1.65361 -1.97225,-3.5643699 -3.89245,-4.1421999 -0.088,-0.0224 -0.17603,-0.003 -0.26367,0.008 z" />
  <path
     d="m 38.337828,164.49187 v 3.087 h 34.07425 v -3.087 z"
     style="fill:#e30016;fill-rule:evenodd;stroke-width:1.27807"
     id="path22-8-6" />
  <path
     d="m 38.331358,151.97549 v 3.087 h 34.07425 v -3.087 z"
     style="fill:#e30016;fill-rule:evenodd;stroke-width:1.27807"
     id="path22-8" />
  <path
     d="m 53.677748,167.13286 3.31384,0.022 -0.0603,21.33061 12.7578,0.0723 0.002,2.9775 -29.1078,0.1876 -9e-4,-3.2133 13.0179,0.0232 z"
     style="fill:#e30016;fill-rule:evenodd"
     id="path20"
     sodipodi:nodetypes="ccccccccc" />
  <path
     d="m 44.710468,198.69493 v 3.087 h 20.8602 v -3.087 z"
     style="fill:#e30016;fill-rule:evenodd"
     id="path22" />
  <path
     d="m 49.574768,208.51703 v 3.0401 h 11.1316 v -3.0401 z"
     style="fill:#e30016;fill-rule:evenodd"
     id="path24" />
  <path
     d="m 25.396668,91.434832 0.1261,8.853698 -4.3634,0.042 0.042,-1.511197 -4.0694,9e-4 0.1681,28.992997 3.9855,0.0391 3e-4,-1.7192 4.4464,-8e-4 3e-4,9.2707 5.1602,0.002 v -9.4005 l 4.6987,10e-4 v 1.5534 l 4.0274,-0.0431 3e-4,-28.613997 -4.4056,0.002 0.042,1.258897 h -4.6985 v -8.726198 z"
     style="fill:#e30016;fill-rule:evenodd"
     id="path28" />
  <path
     d="m 20.823768,104.35793 v 17.4524 h 5.0343 v -17.4524 z"
     style="fill:#ffffff;fill-opacity:1;fill-rule:evenodd"
     id="path30" />
  <path
     d="m 30.388968,104.35793 v 17.4524 h 5.0344 v -17.4524 z"
     style="fill:#ffffff;fill-opacity:1;fill-rule:evenodd"
     id="path32" />
  <path
     d="m 70.495868,93.030732 h 3.8392 l 0.0204,1.6781 14.7294,0.0136 v -1.5259 l 4.7367,0.0227 v 40.905098 l -4.7616,-0.021 v -0.9658 h -14.8723 v 0.9632 l -3.7757,-8e-4 z"
     style="fill:#e30016;fill-rule:evenodd"
     id="path34" />
  <path
     d="m 74.187668,98.736333 0.0839,30.289797 14.7674,-0.0839 V 98.820233 Z"
     style="fill:#ffffff;fill-opacity:1;fill-rule:evenodd"
     id="path36" />
  <path
     d="m 74.523268,101.16953 0.042,4.1114 h 4.5309 l -0.021,3.6918 -4.5309,-0.0839 v 4.1953 l 4.5726,-0.1678 3e-4,8.5391 -4.5309,-0.2537 0.021,4.3843 c 4.8444,-0.4155 9.5303,-0.4439 14.0964,0.0411 l -3e-4,-4.0685 -5.7056,-0.0839 -0.1678,-8.5584 5.5171,0.2304 0.0416,-4.2987 -5.538,0.1247 -0.021,-3.7752 5.0343,0.082 3e-4,-4.1939 c -4.4203,0.2463 -8.8659,0.2889 -13.341,0.0839 z"
     style="fill:#e30016;fill-rule:evenodd"
     id="path38" />
  <path
     d="m 83.752968,115.28493 0.0209,5.832 3.5031,0.0221 -0.021,-5.8323 z"
     style="fill:#e30016;fill-rule:evenodd"
     id="path40" />
  <path
     d="m 38.076868,35.315932 34.6005,-0.2639 -15.7742,27.521 v 23.3257 c -10.5568,2.5557 -12.202,10.450801 -8.2228,16.864998 7.424,-4.714797 18.6515,-1.5936 18.4323,2.9458 -0.32,6.6356 -15.6792,5.6211 -18.2644,2.0046 -2.2658,2.0685 -3.2449,8.1936 -0.1679,13.0893 8.3331,-5.7546 18.8127,-0.0377 17.9108,2.8959 -2.0104,6.5381 -14.8377,4.9028 -18.0786,1.8028 -4.1127,6.3471 -1.0077,14.766 8.3067,15.6903 l 0.1678,10.8604 c -1.0772,-0.0501 -2.2402,0.061 -3.3143,0.0125 l -0.0419,-8.18792 c -8.6774,-1.6821 -13.8002,-12.7423 -7.2998,-20.9764 -4.1335,-5.6366 -3.6153,-11.5387 0.0839,-17.6201 -6.0727,-10.996698 -1.7181,-17.777498 7.0481,-21.731498 l 0.0839,-21.0603 z"
     style="fill:#e30016;fill-rule:evenodd"
     id="path42"
     sodipodi:nodetypes="ccccccccccccccccccc" />
  <path
     d="m 43.310468,38.156532 h 10.4043 l -0.0839,18.1236 z"
     style="fill:#ffffff;fill-opacity:1;fill-rule:evenodd"
     id="path44" />
  <path
     d="m 67.391368,38.072632 h -10.4043 l 0.0839,18.1236 z"
     style="fill:#ffffff;fill-opacity:1;fill-rule:evenodd"
     id="path46" />
  <path
     d="m 57.154868,104.02233 a 6.1251,1.6781 0 0 1 6.1251,1.6781 6.1251,1.6781 0 1 1 -6.1251,-1.6781 z"
     style="fill:#ffffff;fill-opacity:1;fill-rule:evenodd"
     id="path48" />
  <path
     d="m 56.987068,121.64253 a 5.7895,1.6781 0 0 1 5.7895,1.6781 5.7895,1.6781 0 1 1 -5.7895,-1.6781 z"
     style="fill:#ffffff;fill-opacity:1;fill-rule:evenodd"
     id="path50" />
</svg>
